STARTFONT 2.1
COMMENT "Generated by fontforge, http://fontforge.sourceforge.net"
COMMENT "Matthew Skala (2011); based on code by Norbert Schwarz (1986, 2011)"
FONT -FontForge-OCRB-Regular-R-Normal--16-150-75-75-M-120-ISO10646-1
SIZE 15 75 75
FONTBOUNDINGBOX 13 21 -1 -6
STARTPROPERTIES 41
FOUNDRY "FontForge"
FAMILY_NAME "OCRB"
WEIGHT_NAME "Regular"
SLANT "R"
SETWIDTH_NAME "Normal"
ADD_STYLE_NAME ""
PIXEL_SIZE 16
POINT_SIZE 150
RESOLUTION_X 75
RESOLUTION_Y 75
SPACING "M"
AVERAGE_WIDTH 120
CHARSET_REGISTRY "ISO10646"
CHARSET_ENCODING "1"
FONTNAME_REGISTRY ""
CHARSET_COLLECTIONS "ISO10646-1"
FONT_NAME "OCRB"
FACE_NAME "OCR B Regular"
COPYRIGHT "Matthew Skala (2011); based on code by Norbert Schwarz (1986, 2011)"
FONT_VERSION "2"
FONT_ASCENT 13
FONT_DESCENT 3
UNDERLINE_POSITION 0
UNDERLINE_THICKNESS 0
X_HEIGHT 8
CAP_HEIGHT 10
RAW_ASCENT 800
RAW_DESCENT 200
NORM_SPACE 12
RELATIVE_WEIGHT 40
RELATIVE_SETWIDTH 50
SUPERSCRIPT_X 0
SUPERSCRIPT_Y 7
SUPERSCRIPT_SIZE 11
SUBSCRIPT_X 0
SUBSCRIPT_Y 2
SUBSCRIPT_SIZE 11
FIGURE_WIDTH 12
AVG_LOWERCASE_WIDTH 120
AVG_UPPERCASE_WIDTH "120"
_GBDFED_INFO "Edited with gbdfed 1.6."
ENDPROPERTIES
CHARS 139
STARTCHAR .notdef
ENCODING -1
SWIDTH 832 0
DWIDTH 13 0
BBX 0 0 0 0
BITMAP
ENDCHAR
STARTCHAR quotesingle.alt
ENCODING -1
SWIDTH 832 0
DWIDTH 13 0
BBX 2 3 5 8
BITMAP
C0
C0
C0
ENDCHAR
STARTCHAR grave.alt
ENCODING -1
SWIDTH 832 0
DWIDTH 13 0
BBX 3 3 4 8
BITMAP
C0
C0
60
ENDCHAR
STARTCHAR quotedbl.alt
ENCODING -1
SWIDTH 832 0
DWIDTH 13 0
BBX 4 3 4 9
BITMAP
90
B0
90
ENDCHAR
STARTCHAR bar.alt
ENCODING -1
SWIDTH 832 0
DWIDTH 13 0
BBX 2 13 0 -2
BITMAP
C0
C0
C0
C0
C0
C0
C0
C0
C0
C0
C0
C0
C0
ENDCHAR
STARTCHAR space
ENCODING 32
SWIDTH 832 0
DWIDTH 13 0
BBX 0 0 0 0
BITMAP
ENDCHAR
STARTCHAR exclam
ENCODING 33
SWIDTH 832 0
DWIDTH 13 0
BBX 2 13 5 -1
BITMAP
C0
C0
C0
C0
C0
C0
C0
00
00
00
00
C0
C0
ENDCHAR
STARTCHAR quotedbl
ENCODING 34
SWIDTH 832 0
DWIDTH 13 0
BBX 6 5 3 7
BITMAP
CC
CC
8C
8C
8C
ENDCHAR
STARTCHAR numbersign
ENCODING 35
SWIDTH 832 0
DWIDTH 13 0
BBX 8 12 2 0
BITMAP
33
32
32
FF
7E
66
64
FE
FE
CC
C8
C8
ENDCHAR
STARTCHAR dollar
ENCODING 36
SWIDTH 832 0
DWIDTH 13 0
BBX 8 12 2 0
BITMAP
38
FE
DA
D8
F8
7C
1E
1B
1B
DB
FE
38
ENDCHAR
STARTCHAR percent
ENCODING 37
SWIDTH 832 0
DWIDTH 13 0
BBX 8 13 2 0
BITMAP
60
F3
B6
F6
6C
08
18
30
34
6E
6B
CF
8E
ENDCHAR
STARTCHAR ampersand
ENCODING 38
SWIDTH 832 0
DWIDTH 13 0
BBX 8 13 2 0
BITMAP
10
7C
C4
C4
CC
78
70
F3
DB
8F
CE
FE
7E
ENDCHAR
STARTCHAR quotesingle
ENCODING 39
SWIDTH 832 0
DWIDTH 13 0
BBX 3 6 4 6
BITMAP
E0
E0
60
60
60
60
ENDCHAR
STARTCHAR parenleft
ENCODING 40
SWIDTH 832 0
DWIDTH 13 0
BBX 5 12 4 0
BITMAP
18
30
60
40
C0
C0
C0
C0
C0
60
70
38
ENDCHAR
STARTCHAR parenright
ENCODING 41
SWIDTH 832 0
DWIDTH 13 0
BBX 5 13 3 -1
BITMAP
C0
E0
60
30
10
10
18
10
10
30
60
C0
80
ENDCHAR
STARTCHAR asterisk
ENCODING 42
SWIDTH 832 0
DWIDTH 13 0
BBX 8 8 2 2
BITMAP
18
18
DB
FF
3C
3C
66
40
ENDCHAR
STARTCHAR plus
ENCODING 43
SWIDTH 832 0
DWIDTH 13 0
BBX 8 9 2 2
BITMAP
10
18
18
18
FF
FE
18
18
18
ENDCHAR
STARTCHAR comma
ENCODING 44
SWIDTH 832 0
DWIDTH 13 0
BBX 6 6 3 -3
BITMAP
3C
3C
78
F0
E0
C0
ENDCHAR
STARTCHAR hyphen
ENCODING 45
SWIDTH 832 0
DWIDTH 13 0
BBX 8 2 2 5
BITMAP
FF
FF
ENDCHAR
STARTCHAR period
ENCODING 46
SWIDTH 832 0
DWIDTH 13 0
BBX 4 3 4 0
BITMAP
F0
F0
F0
ENDCHAR
STARTCHAR slash
ENCODING 47
SWIDTH 832 0
DWIDTH 13 0
BBX 6 13 3 -1
BITMAP
0C
0C
18
18
10
30
30
60
60
40
C0
C0
80
ENDCHAR
STARTCHAR zero
ENCODING 48
SWIDTH 832 0
DWIDTH 13 0
BBX 8 13 2 0
BITMAP
3C
7E
66
C3
C3
C3
C3
C3
C3
C3
66
7E
3C
ENDCHAR
STARTCHAR one
ENCODING 49
SWIDTH 832 0
DWIDTH 13 0
BBX 5 12 3 0
BITMAP
38
78
D8
98
18
18
18
18
18
18
18
18
ENDCHAR
STARTCHAR two
ENCODING 50
SWIDTH 832 0
DWIDTH 13 0
BBX 7 13 2 0
BITMAP
38
7C
C6
02
02
06
0C
18
30
60
C0
FC
7E
ENDCHAR
STARTCHAR three
ENCODING 51
SWIDTH 832 0
DWIDTH 13 0
BBX 8 12 2 0
BITMAP
FE
FE
06
1C
38
3E
07
03
03
06
FC
78
ENDCHAR
STARTCHAR four
ENCODING 52
SWIDTH 832 0
DWIDTH 13 0
BBX 8 12 2 0
BITMAP
18
18
30
30
60
64
CC
CC
FF
FF
0C
0C
ENDCHAR
STARTCHAR five
ENCODING 53
SWIDTH 832 0
DWIDTH 13 0
BBX 7 12 2 0
BITMAP
7E
7E
40
40
78
7C
06
02
02
06
FC
78
ENDCHAR
STARTCHAR six
ENCODING 54
SWIDTH 832 0
DWIDTH 13 0
BBX 8 12 2 0
BITMAP
0C
1C
30
30
7C
FE
C7
C3
C3
C3
7E
3C
ENDCHAR
STARTCHAR seven
ENCODING 55
SWIDTH 832 0
DWIDTH 13 0
BBX 8 12 2 0
BITMAP
FF
FF
03
06
0C
18
18
30
30
30
30
30
ENDCHAR
STARTCHAR eight
ENCODING 56
SWIDTH 832 0
DWIDTH 13 0
BBX 8 13 2 0
BITMAP
3C
7E
66
42
66
3C
3C
66
C3
C3
C3
7E
3C
ENDCHAR
STARTCHAR nine
ENCODING 57
SWIDTH 832 0
DWIDTH 13 0
BBX 8 13 2 0
BITMAP
3C
7E
E7
C3
C3
C3
E3
7E
1E
0C
18
30
60
ENDCHAR
STARTCHAR colon
ENCODING 58
SWIDTH 832 0
DWIDTH 13 0
BBX 3 9 4 0
BITMAP
E0
E0
E0
00
00
00
E0
E0
E0
ENDCHAR
STARTCHAR semicolon
ENCODING 59
SWIDTH 832 0
DWIDTH 13 0
BBX 5 12 3 -3
BITMAP
38
78
38
00
00
00
78
70
F0
E0
C0
80
ENDCHAR
STARTCHAR less
ENCODING 60
SWIDTH 832 0
DWIDTH 13 0
BBX 8 10 2 1
BITMAP
03
0E
1C
70
E0
E0
30
1C
06
03
ENDCHAR
STARTCHAR equal
ENCODING 61
SWIDTH 832 0
DWIDTH 13 0
BBX 8 6 2 3
BITMAP
FE
FF
00
00
FF
FE
ENDCHAR
STARTCHAR greater
ENCODING 62
SWIDTH 832 0
DWIDTH 13 0
BBX 8 10 2 1
BITMAP
C0
E0
38
1C
07
07
1C
38
E0
C0
ENDCHAR
STARTCHAR question
ENCODING 63
SWIDTH 832 0
DWIDTH 13 0
BBX 7 13 2 -1
BITMAP
10
7C
C6
C6
06
0C
18
18
00
00
00
18
18
ENDCHAR
STARTCHAR at
ENCODING 64
SWIDTH 832 0
DWIDTH 13 0
BBX 8 13 2 -1
BITMAP
18
7C
C6
82
03
63
FB
DB
9B
9B
DB
FE
64
ENDCHAR
STARTCHAR A
ENCODING 65
SWIDTH 832 0
DWIDTH 13 0
BBX 8 11 2 0
BITMAP
18
38
3C
2C
64
64
7E
7E
C2
C2
C3
ENDCHAR
STARTCHAR B
ENCODING 66
SWIDTH 832 0
DWIDTH 13 0
BBX 8 11 2 0
BITMAP
FC
FE
82
83
FE
FE
83
83
83
FE
FC
ENDCHAR
STARTCHAR C
ENCODING 67
SWIDTH 832 0
DWIDTH 13 0
BBX 6 12 3 0
BITMAP
10
7C
CC
C4
80
80
80
80
80
C4
FC
78
ENDCHAR
STARTCHAR D
ENCODING 68
SWIDTH 832 0
DWIDTH 13 0
BBX 6 11 3 0
BITMAP
E0
F0
98
8C
84
84
84
8C
8C
F8
E0
ENDCHAR
STARTCHAR E
ENCODING 69
SWIDTH 832 0
DWIDTH 13 0
BBX 7 11 3 0
BITMAP
FE
FC
80
80
F8
FC
80
80
80
FC
FE
ENDCHAR
STARTCHAR F
ENCODING 70
SWIDTH 832 0
DWIDTH 13 0
BBX 6 11 3 0
BITMAP
FC
FC
C0
C0
F8
FC
C0
C0
C0
C0
C0
ENDCHAR
STARTCHAR G
ENCODING 71
SWIDTH 832 0
DWIDTH 13 0
BBX 8 12 2 0
BITMAP
18
7E
62
C0
C0
C0
DE
CF
C3
C3
7F
3E
ENDCHAR
STARTCHAR H
ENCODING 72
SWIDTH 832 0
DWIDTH 13 0
BBX 7 11 2 0
BITMAP
C2
C2
C2
C2
FE
FE
C2
C2
C2
C2
C2
ENDCHAR
STARTCHAR I
ENCODING 73
SWIDTH 832 0
DWIDTH 13 0
BBX 6 11 3 0
BITMAP
FC
F8
30
30
30
30
30
30
30
F8
FC
ENDCHAR
STARTCHAR J
ENCODING 74
SWIDTH 832 0
DWIDTH 13 0
BBX 6 11 2 0
BITMAP
0C
0C
0C
0C
0C
0C
0C
CC
CC
FC
78
ENDCHAR
STARTCHAR K
ENCODING 75
SWIDTH 832 0
DWIDTH 13 0
BBX 8 12 2 -1
BITMAP
C2
C6
CC
D8
F0
E0
F0
D8
CC
C6
C3
80
ENDCHAR
STARTCHAR L
ENCODING 76
SWIDTH 832 0
DWIDTH 13 0
BBX 8 11 2 0
BITMAP
C0
C0
C0
C0
C0
C0
C0
C0
C0
FE
FF
ENDCHAR
STARTCHAR M
ENCODING 77
SWIDTH 832 0
DWIDTH 13 0
BBX 8 12 2 -1
BITMAP
E7
E7
AF
AF
BB
BB
9B
9B
83
83
83
80
ENDCHAR
STARTCHAR N
ENCODING 78
SWIDTH 832 0
DWIDTH 13 0
BBX 8 12 2 -1
BITMAP
C3
E3
E3
F3
F3
DB
DB
CF
CF
C7
C7
82
ENDCHAR
STARTCHAR O
ENCODING 79
SWIDTH 832 0
DWIDTH 13 0
BBX 8 12 2 0
BITMAP
18
7C
66
C2
C3
83
83
C3
C2
46
7C
38
ENDCHAR
STARTCHAR P
ENCODING 80
SWIDTH 832 0
DWIDTH 13 0
BBX 8 11 2 0
BITMAP
FC
FE
C3
C3
C3
FE
F8
C0
C0
C0
C0
ENDCHAR
STARTCHAR Q
ENCODING 81
SWIDTH 832 0
DWIDTH 13 0
BBX 8 12 2 0
BITMAP
10
7C
C6
C6
C2
82
92
DA
CE
CE
7E
13
ENDCHAR
STARTCHAR R
ENCODING 82
SWIDTH 832 0
DWIDTH 13 0
BBX 7 11 2 0
BITMAP
FC
FE
C2
C2
C6
FC
F8
CC
C4
C6
C2
ENDCHAR
STARTCHAR S
ENCODING 83
SWIDTH 832 0
DWIDTH 13 0
BBX 7 12 2 0
BITMAP
18
7E
46
C2
60
78
1C
06
02
C6
7E
3C
ENDCHAR
STARTCHAR T
ENCODING 84
SWIDTH 832 0
DWIDTH 13 0
BBX 8 11 2 0
BITMAP
FF
FE
18
18
18
18
18
18
18
18
18
ENDCHAR
STARTCHAR U
ENCODING 85
SWIDTH 832 0
DWIDTH 13 0
BBX 8 11 2 0
BITMAP
C3
C3
C3
C3
C3
C3
C3
C3
C2
7E
3C
ENDCHAR
STARTCHAR V
ENCODING 86
SWIDTH 832 0
DWIDTH 13 0
BBX 8 12 2 -1
BITMAP
83
C3
C2
C6
46
66
64
2C
2C
3C
38
18
ENDCHAR
STARTCHAR W
ENCODING 87
SWIDTH 832 0
DWIDTH 13 0
BBX 8 12 2 -1
BITMAP
83
83
83
C3
D3
DB
FA
FA
FE
6E
66
40
ENDCHAR
STARTCHAR X
ENCODING 88
SWIDTH 832 0
DWIDTH 13 0
BBX 7 12 2 -1
BITMAP
C2
C6
66
2C
38
18
38
3C
64
66
C2
02
ENDCHAR
STARTCHAR Y
ENCODING 89
SWIDTH 832 0
DWIDTH 13 0
BBX 7 12 2 -1
BITMAP
C2
C6
66
6C
3C
18
18
18
18
18
18
10
ENDCHAR
STARTCHAR Z
ENCODING 90
SWIDTH 832 0
DWIDTH 13 0
BBX 7 11 2 0
BITMAP
FE
7E
0C
08
18
10
30
20
60
7E
FE
ENDCHAR
STARTCHAR bracketleft
ENCODING 91
SWIDTH 832 0
DWIDTH 13 0
BBX 6 13 3 0
BITMAP
7C
FC
C0
C0
C0
C0
C0
C0
C0
C0
C0
FC
FC
ENDCHAR
STARTCHAR backslash
ENCODING 92
SWIDTH 832 0
DWIDTH 13 0
BBX 6 12 3 0
BITMAP
80
C0
C0
60
60
20
30
30
18
18
08
0C
ENDCHAR
STARTCHAR bracketright
ENCODING 93
SWIDTH 832 0
DWIDTH 13 0
BBX 6 13 2 0
BITMAP
7C
FC
04
04
04
04
04
04
04
04
04
7C
FC
ENDCHAR
STARTCHAR underscore
ENCODING 95
SWIDTH 832 0
DWIDTH 13 0
BBX 8 2 2 -4
BITMAP
FF
FF
ENDCHAR
STARTCHAR grave
ENCODING 96
SWIDTH 832 0
DWIDTH 13 0
BBX 3 3 4 9
BITMAP
C0
C0
60
ENDCHAR
STARTCHAR a
ENCODING 97
SWIDTH 832 0
DWIDTH 13 0
BBX 7 9 2 0
BITMAP
18
7C
46
0E
7E
C2
C6
FE
7A
ENDCHAR
STARTCHAR b
ENCODING 98
SWIDTH 832 0
DWIDTH 13 0
BBX 8 12 2 0
BITMAP
C0
C0
C0
D8
FE
E6
C3
C3
C3
C2
FE
FC
ENDCHAR
STARTCHAR c
ENCODING 99
SWIDTH 832 0
DWIDTH 13 0
BBX 6 9 3 0
BITMAP
30
7C
CC
80
80
80
C4
FC
78
ENDCHAR
STARTCHAR d
ENCODING 100
SWIDTH 832 0
DWIDTH 13 0
BBX 8 12 2 0
BITMAP
03
03
03
13
7F
C7
C3
83
83
C3
7F
3F
ENDCHAR
STARTCHAR e
ENCODING 101
SWIDTH 832 0
DWIDTH 13 0
BBX 8 9 2 0
BITMAP
18
7E
C6
FF
FF
C0
C0
7E
3C
ENDCHAR
STARTCHAR f
ENCODING 102
SWIDTH 832 0
DWIDTH 13 0
BBX 7 13 2 0
BITMAP
06
0E
18
18
7E
FE
18
18
18
18
18
18
18
ENDCHAR
STARTCHAR g
ENCODING 103
SWIDTH 832 0
DWIDTH 13 0
BBX 7 12 2 -3
BITMAP
12
7E
C6
C2
82
C2
C6
7E
32
42
FE
7C
ENDCHAR
STARTCHAR h
ENCODING 104
SWIDTH 832 0
DWIDTH 13 0
BBX 7 12 2 0
BITMAP
40
C0
C0
C8
FE
E6
C6
C2
C2
C2
C2
C2
ENDCHAR
STARTCHAR i
ENCODING 105
SWIDTH 832 0
DWIDTH 13 0
BBX 4 12 3 0
BITMAP
30
30
00
F0
F0
10
10
10
10
10
10
10
ENDCHAR
STARTCHAR j
ENCODING 106
SWIDTH 832 0
DWIDTH 13 0
BBX 4 15 3 -3
BITMAP
30
30
00
70
F0
10
10
10
10
10
10
10
10
F0
E0
ENDCHAR
STARTCHAR k
ENCODING 107
SWIDTH 832 0
DWIDTH 13 0
BBX 6 12 3 0
BITMAP
80
80
80
8C
9C
B0
E0
E0
B0
98
8C
84
ENDCHAR
STARTCHAR l
ENCODING 108
SWIDTH 832 0
DWIDTH 13 0
BBX 5 12 4 0
BITMAP
C0
C0
C0
C0
C0
C0
C0
C0
C0
C0
F0
78
ENDCHAR
STARTCHAR m
ENCODING 109
SWIDTH 832 0
DWIDTH 13 0
BBX 8 9 2 0
BITMAP
A4
FF
DB
9B
9B
9B
9B
9B
9B
ENDCHAR
STARTCHAR n
ENCODING 110
SWIDTH 832 0
DWIDTH 13 0
BBX 8 9 2 0
BITMAP
18
FE
E2
C3
C3
C3
C3
C3
C3
ENDCHAR
STARTCHAR o
ENCODING 111
SWIDTH 832 0
DWIDTH 13 0
BBX 8 9 2 0
BITMAP
18
7E
C6
C3
83
83
C2
7E
3C
ENDCHAR
STARTCHAR p
ENCODING 112
SWIDTH 832 0
DWIDTH 13 0
BBX 8 12 2 -3
BITMAP
18
FE
E6
C3
C3
C3
C3
FE
FC
C0
C0
80
ENDCHAR
STARTCHAR q
ENCODING 113
SWIDTH 832 0
DWIDTH 13 0
BBX 8 12 2 -3
BITMAP
18
7F
C7
C3
83
83
C7
7F
3F
03
03
03
ENDCHAR
STARTCHAR r
ENCODING 114
SWIDTH 832 0
DWIDTH 13 0
BBX 7 9 3 0
BITMAP
18
FC
E6
C0
C0
C0
C0
C0
C0
ENDCHAR
STARTCHAR s
ENCODING 115
SWIDTH 832 0
DWIDTH 13 0
BBX 7 9 2 0
BITMAP
18
7E
46
60
7C
0E
02
FE
7C
ENDCHAR
STARTCHAR t
ENCODING 116
SWIDTH 832 0
DWIDTH 13 0
BBX 7 11 2 0
BITMAP
30
30
FC
FE
30
30
30
30
30
3E
1E
ENDCHAR
STARTCHAR u
ENCODING 117
SWIDTH 832 0
DWIDTH 13 0
BBX 8 9 2 0
BITMAP
C3
C3
C3
C3
C3
C3
C7
7F
7A
ENDCHAR
STARTCHAR v
ENCODING 118
SWIDTH 832 0
DWIDTH 13 0
BBX 8 9 2 0
BITMAP
83
C3
C2
46
64
6C
3C
38
18
ENDCHAR
STARTCHAR w
ENCODING 119
SWIDTH 832 0
DWIDTH 13 0
BBX 8 9 2 0
BITMAP
83
C3
C3
DA
FA
FA
7E
6E
66
ENDCHAR
STARTCHAR x
ENCODING 120
SWIDTH 832 0
DWIDTH 13 0
BBX 6 9 3 0
BITMAP
84
CC
58
70
30
78
D8
8C
84
ENDCHAR
STARTCHAR y
ENCODING 121
SWIDTH 832 0
DWIDTH 13 0
BBX 8 12 2 -3
BITMAP
83
C3
46
66
3C
38
18
10
30
20
E0
C0
ENDCHAR
STARTCHAR z
ENCODING 122
SWIDTH 832 0
DWIDTH 13 0
BBX 7 9 2 0
BITMAP
7E
7E
06
0C
18
30
60
FE
FE
ENDCHAR
STARTCHAR braceleft
ENCODING 123
SWIDTH 832 0
DWIDTH 13 0
BBX 8 13 2 0
BITMAP
06
1F
10
10
10
30
F0
F0
30
10
10
1E
0F
ENDCHAR
STARTCHAR bar
ENCODING 124
SWIDTH 832 0
DWIDTH 13 0
BBX 2 15 5 -3
BITMAP
C0
C0
C0
C0
C0
C0
C0
C0
C0
C0
C0
C0
C0
C0
C0
ENDCHAR
STARTCHAR braceright
ENCODING 125
SWIDTH 832 0
DWIDTH 13 0
BBX 8 13 2 0
BITMAP
C0
F0
18
18
18
08
0F
0E
18
18
18
F8
F0
ENDCHAR
STARTCHAR exclamdown
ENCODING 161
SWIDTH 832 0
DWIDTH 13 0
BBX 2 11 5 -4
BITMAP
C0
C0
00
C0
C0
C0
C0
C0
C0
C0
80
ENDCHAR
STARTCHAR currency
ENCODING 164
SWIDTH 832 0
DWIDTH 13 0
BBX 8 8 2 2
BITMAP
DB
FE
66
C2
C2
66
FE
DB
ENDCHAR
STARTCHAR section
ENCODING 167
SWIDTH 832 0
DWIDTH 13 0
BBX 8 13 2 0
BITMAP
18
7E
C6
C0
78
FE
C3
F3
7E
03
C3
FE
3C
ENDCHAR
STARTCHAR dieresis
ENCODING 168
SWIDTH 832 0
DWIDTH 13 0
BBX 4 3 4 4
BITMAP
B0
B0
80
ENDCHAR
STARTCHAR macron
ENCODING 175
SWIDTH 832 0
DWIDTH 13 0
BBX 8 2 2 8
BITMAP
FF
FE
ENDCHAR
STARTCHAR acute
ENCODING 180
SWIDTH 832 0
DWIDTH 13 0
BBX 2 3 5 8
BITMAP
40
C0
C0
ENDCHAR
STARTCHAR cedilla
ENCODING 184
SWIDTH 832 0
DWIDTH 13 0
BBX 3 7 5 -6
BITMAP
80
80
E0
60
60
E0
80
ENDCHAR
STARTCHAR questiondown
ENCODING 191
SWIDTH 832 0
DWIDTH 13 0
BBX 6 13 3 -4
BITMAP
30
30
00
00
30
30
20
E0
C0
84
CC
FC
30
ENDCHAR
STARTCHAR Adieresis
ENCODING 196
SWIDTH 832 0
DWIDTH 13 0
BBX 8 12 2 0
BITMAP
83
9B
18
38
3C
2C
64
66
7E
FE
C3
83
ENDCHAR
STARTCHAR AE
ENCODING 198
SWIDTH 832 0
DWIDTH 13 0
BBX 13 11 -1 0
BITMAP
1FF8
3FF8
3C00
3C00
27F8
67F8
7E00
7E00
4300
C3F8
C3F8
ENDCHAR
STARTCHAR Odieresis
ENCODING 214
SWIDTH 832 0
DWIDTH 13 0
BBX 8 12 2 0
BITMAP
83
83
3C
7E
C6
C3
C3
C3
C3
C6
7E
3C
ENDCHAR
STARTCHAR Oslash
ENCODING 216
SWIDTH 832 0
DWIDTH 13 0
BBX 9 13 1 -1
BITMAP
0D80
3F80
3300
6300
6780
4D80
4D80
7980
7100
3300
7E00
5C00
C000
ENDCHAR
STARTCHAR Udieresis
ENCODING 220
SWIDTH 832 0
DWIDTH 13 0
BBX 8 13 2 0
BITMAP
C2
C7
00
80
83
83
83
83
83
83
C3
7E
3C
ENDCHAR
STARTCHAR germandbls
ENCODING 223
SWIDTH 832 0
DWIDTH 13 0
BBX 8 13 2 0
BITMAP
18
7E
46
C2
C2
C6
CE
CE
C3
C3
C3
C6
CE
ENDCHAR
STARTCHAR adieresis
ENCODING 228
SWIDTH 832 0
DWIDTH 13 0
BBX 7 11 2 0
BITMAP
2C
2C
18
7C
46
0E
7E
C2
C6
FE
7A
ENDCHAR
STARTCHAR ae
ENCODING 230
SWIDTH 832 0
DWIDTH 13 0
BBX 13 9 -1 0
BITMAP
1860
7FF8
4318
0FF8
7FF8
4300
C700
7FF8
3BF0
ENDCHAR
STARTCHAR odieresis
ENCODING 246
SWIDTH 832 0
DWIDTH 13 0
BBX 8 11 2 0
BITMAP
2C
2C
18
7E
C6
C3
83
83
C2
7E
3C
ENDCHAR
STARTCHAR oslash
ENCODING 248
SWIDTH 832 0
DWIDTH 13 0
BBX 9 10 1 -1
BITMAP
0D80
3F80
6300
6780
4D80
5980
7100
7F00
DE00
C000
ENDCHAR
STARTCHAR udieresis
ENCODING 252
SWIDTH 832 0
DWIDTH 13 0
BBX 8 11 2 0
BITMAP
2C
2C
00
C3
C3
C3
C3
C3
C7
7F
7A
ENDCHAR
STARTCHAR dotlessi
ENCODING 305
SWIDTH 832 0
DWIDTH 13 0
BBX 4 9 3 0
BITMAP
F0
F0
10
10
10
10
10
10
10
ENDCHAR
STARTCHAR OE
ENCODING 338
SWIDTH 832 0
DWIDTH 13 0
BBX 13 12 -1 0
BITMAP
1000
7FF8
67F8
C700
8300
83F0
83F0
8300
C300
C700
7FF8
3BF8
ENDCHAR
STARTCHAR oe
ENCODING 339
SWIDTH 832 0
DWIDTH 13 0
BBX 13 9 -1 0
BITMAP
1860
7DF8
C718
83F8
83F8
8300
C700
FFF8
3CF0
ENDCHAR
STARTCHAR dotlessj
ENCODING 567
SWIDTH 832 0
DWIDTH 13 0
BBX 5 12 2 -3
BITMAP
38
78
08
08
08
08
08
08
08
08
78
F0
ENDCHAR
STARTCHAR circumflex
ENCODING 710
SWIDTH 832 0
DWIDTH 13 0
BBX 8 6 2 6
BITMAP
18
38
3C
6E
C6
C3
ENDCHAR
STARTCHAR caron
ENCODING 711
SWIDTH 832 0
DWIDTH 13 0
BBX 8 6 2 9
BITMAP
C3
E6
7E
3C
38
18
ENDCHAR
STARTCHAR breve
ENCODING 728
SWIDTH 832 0
DWIDTH 13 0
BBX 8 5 2 10
BITMAP
83
C3
C6
7E
18
ENDCHAR
STARTCHAR dotaccent
ENCODING 729
SWIDTH 832 0
DWIDTH 13 0
BBX 2 2 5 8
BITMAP
C0
C0
ENDCHAR
STARTCHAR tilde
ENCODING 732
SWIDTH 832 0
DWIDTH 13 0
BBX 8 3 2 8
BITMAP
F3
DE
04
ENDCHAR
STARTCHAR Gamma
ENCODING 915
SWIDTH 832 0
DWIDTH 13 0
BBX 8 12 2 0
BITMAP
7E
FF
C3
C3
C0
C0
C0
C0
C0
C0
C0
C0
ENDCHAR
STARTCHAR Theta
ENCODING 920
SWIDTH 832 0
DWIDTH 13 0
BBX 8 12 2 0
BITMAP
18
7C
66
C2
C3
9B
BB
C3
C2
46
7C
38
ENDCHAR
STARTCHAR Lambda
ENCODING 923
SWIDTH 832 0
DWIDTH 13 0
BBX 7 11 2 0
BITMAP
18
18
18
38
38
3C
2C
64
64
66
E6
ENDCHAR
STARTCHAR Xi
ENCODING 926
SWIDTH 832 0
DWIDTH 13 0
BBX 8 11 2 0
BITMAP
FF
FE
00
00
7C
7E
00
00
00
FE
FF
ENDCHAR
STARTCHAR Pi
ENCODING 928
SWIDTH 832 0
DWIDTH 13 0
BBX 8 12 2 0
BITMAP
FE
FF
C2
C2
C2
C2
C2
C2
C2
C2
C2
C2
ENDCHAR
STARTCHAR Sigma
ENCODING 931
SWIDTH 832 0
DWIDTH 13 0
BBX 7 11 3 0
BITMAP
FE
FE
C0
C0
60
60
60
40
C0
FE
FE
ENDCHAR
STARTCHAR Upsilon
ENCODING 933
SWIDTH 832 0
DWIDTH 13 0
BBX 6 11 3 0
BITMAP
FC
FC
30
30
30
30
30
30
30
30
30
ENDCHAR
STARTCHAR Phi
ENCODING 934
SWIDTH 832 0
DWIDTH 13 0
BBX 8 13 2 -2
BITMAP
18
18
3C
7E
DA
DB
9B
9B
DA
7E
3C
18
18
ENDCHAR
STARTCHAR Psi
ENCODING 936
SWIDTH 832 0
DWIDTH 13 0
BBX 6 12 3 -2
BITMAP
B4
BC
BC
BC
BC
BC
FC
F8
F8
78
30
20
ENDCHAR
STARTCHAR Omega
ENCODING 8486
SWIDTH 832 0
DWIDTH 13 0
BBX 8 13 2 0
BITMAP
3C
7E
C2
83
83
C3
C2
C2
46
46
64
64
6C
ENDCHAR
STARTCHAR arrowup
ENCODING 8593
SWIDTH 832 0
DWIDTH 13 0
BBX 6 11 3 0
BITMAP
30
78
FC
BC
30
30
30
30
30
30
30
ENDCHAR
STARTCHAR arrowdown
ENCODING 8595
SWIDTH 832 0
DWIDTH 13 0
BBX 6 11 3 0
BITMAP
30
30
30
30
30
30
30
30
FC
78
30
ENDCHAR
STARTCHAR Delta
ENCODING 8710
SWIDTH 832 0
DWIDTH 13 0
BBX 7 11 2 0
BITMAP
18
18
38
38
3C
2C
64
66
46
FE
FE
ENDCHAR
ENDFONT
